<svg width="762" height="523" viewBox="0 0 762 523" fill="none" xmlns="http://www.w3.org/2000/svg">
<g clip-path="url(#clip0)">
<path d="M740.676 0H69.6763C64.1086 0.00608794 58.7707 2.22054 54.8338 6.15749C50.8968 10.0944 48.6824 15.4323 48.6763 21V375C48.6824 380.568 50.8968 385.906 54.8338 389.842C58.7707 393.779 64.1086 395.994 69.6763 396H740.676C746.244 395.994 751.582 393.779 755.519 389.842C759.456 385.906 761.67 380.568 761.676 375V21C761.67 15.4323 759.456 10.0944 755.519 6.15749C751.582 2.22054 746.244 0.00608794 740.676 0ZM759.676 375C759.672 380.038 757.668 384.868 754.106 388.43C750.544 391.992 745.714 393.995 740.676 394H69.6763C64.6386 393.995 59.8085 391.992 56.2463 388.43C52.6841 384.868 50.6808 380.038 50.6763 375V21C50.6808 15.9623 52.6841 11.1322 56.2463 7.57001C59.8085 4.0078 64.6386 2.00456 69.6763 2H740.676C745.714 2.00456 750.544 4.0078 754.106 7.57001C757.668 11.1322 759.672 15.9623 759.676 21V375Z" fill="#3F3D56"/>
<path d="M707.676 57.3696H102.676C102.411 57.3696 102.157 57.2643 101.969 57.0768C101.782 56.8892 101.676 56.6348 101.676 56.3696C101.676 56.1044 101.782 55.8501 101.969 55.6625C102.157 55.475 102.411 55.3696 102.676 55.3696H707.676C707.941 55.3696 708.196 55.475 708.383 55.6625C708.571 55.8501 708.676 56.1044 708.676 56.3696C708.676 56.6348 708.571 56.8892 708.383 57.0768C708.196 57.2643 707.941 57.3696 707.676 57.3696Z" fill="#3F3D56"/>
<path d="M273.676 353C273.411 353 273.157 352.895 272.969 352.707C272.782 352.52 272.676 352.265 272.676 352V23C272.676 22.7348 272.782 22.4804 272.969 22.2929C273.157 22.1054 273.411 22 273.676 22C273.941 22 274.196 22.1054 274.383 22.2929C274.571 22.4804 274.676 22.7348 274.676 23V352C274.676 352.265 274.571 352.52 274.383 352.707C274.196 352.895 273.941 353 273.676 353V353Z" fill="#3F3D56"/>
<path d="M424.676 353C424.411 353 424.157 352.895 423.969 352.707C423.782 352.52 423.676 352.265 423.676 352V23C423.676 22.7348 423.782 22.4804 423.969 22.2929C424.157 22.1054 424.411 22 424.676 22C424.941 22 425.196 22.1054 425.383 22.2929C425.571 22.4804 425.676 22.7348 425.676 23V352C425.676 352.265 425.571 352.52 425.383 352.707C425.196 352.895 424.941 353 424.676 353V353Z" fill="#3F3D56"/>
<path d="M575.676 353C575.411 353 575.157 352.895 574.969 352.707C574.782 352.52 574.676 352.265 574.676 352V23C574.676 22.7348 574.782 22.4804 574.969 22.2929C575.157 22.1054 575.411 22 575.676 22C575.941 22 576.196 22.1054 576.383 22.2929C576.571 22.4804 576.676 22.7348 576.676 23V352C576.676 352.265 576.571 352.52 576.383 352.707C576.196 352.895 575.941 353 575.676 353V353Z" fill="#3F3D56"/>
<path d="M176.592 160.587H140.052C138.859 160.586 137.715 160.112 136.871 159.268C136.028 158.424 135.553 157.28 135.552 156.087V112.968C135.553 111.775 136.028 110.631 136.871 109.787C137.715 108.944 138.859 108.469 140.052 108.468H176.592C177.785 108.469 178.929 108.944 179.772 109.787C180.616 110.631 181.091 111.775 181.092 112.968V156.087C181.091 157.28 180.616 158.424 179.772 159.268C178.929 160.112 177.785 160.586 176.592 160.587V160.587Z" fill="#70C6F1"/>
<path d="M227.592 283.587H191.052C189.859 283.586 188.715 283.112 187.871 282.268C187.028 281.424 186.553 280.28 186.552 279.087V235.968C186.553 234.775 187.028 233.631 187.871 232.787C188.715 231.944 189.859 231.469 191.052 231.468H227.592C228.785 231.469 229.929 231.944 230.772 232.787C231.616 233.631 232.091 234.775 232.092 235.968V279.087C232.091 280.28 231.616 281.424 230.772 282.268C229.929 283.112 228.785 283.586 227.592 283.587V283.587Z" fill="#70C6F1"/>
<path d="M346.592 186.587H310.052C308.859 186.586 307.715 186.112 306.872 185.268C306.028 184.424 305.553 183.28 305.552 182.087V138.968C305.553 137.775 306.028 136.631 306.872 135.787C307.715 134.944 308.859 134.469 310.052 134.468H346.592C347.785 134.469 348.929 134.944 349.773 135.787C350.616 136.631 351.091 137.775 351.092 138.968V182.087C351.091 183.28 350.616 184.424 349.773 185.268C348.929 186.112 347.785 186.586 346.592 186.587V186.587Z" fill="#70C6F1"/>
<path d="M499.592 139.587H463.052C461.859 139.586 460.715 139.112 459.872 138.268C459.028 137.424 458.553 136.28 458.552 135.087V91.9678C458.553 90.7747 459.028 89.6309 459.872 88.7873C460.715 87.9437 461.859 87.4691 463.052 87.4678H499.592C500.785 87.4691 501.929 87.9437 502.773 88.7873C503.616 89.6309 504.091 90.7747 504.092 91.9678V135.087C504.091 136.28 503.616 137.424 502.773 138.268C501.929 139.112 500.785 139.586 499.592 139.587V139.587Z" fill="#70C6F1"/>
<path d="M640.592 139.587H604.052C602.859 139.586 601.715 139.112 600.872 138.268C600.028 137.424 599.553 136.28 599.552 135.087V91.9678C599.553 90.7747 600.028 89.6309 600.872 88.7873C601.715 87.9437 602.859 87.4691 604.052 87.4678H640.592C641.785 87.4691 642.929 87.9437 643.773 88.7873C644.616 89.6309 645.091 90.7747 645.092 91.9678V135.087C645.091 136.28 644.616 137.424 643.773 138.268C642.929 139.112 641.785 139.586 640.592 139.587V139.587Z" fill="#70C6F1"/>
<path d="M705.592 151.587H669.052C667.859 151.586 666.715 151.112 665.872 150.268C665.028 149.424 664.553 148.28 664.552 147.087V103.968C664.553 102.775 665.028 101.631 665.872 100.787C666.715 99.9437 667.859 99.4691 669.052 99.4678H705.592C706.785 99.4691 707.929 99.9437 708.773 100.787C709.616 101.631 710.091 102.775 710.092 103.968V147.087C710.091 148.28 709.616 149.424 708.773 150.268C707.929 151.112 706.785 151.586 705.592 151.587Z" fill="#172B4D"/>
<path d="M676.592 228.587H640.052C638.859 228.586 637.715 228.112 636.872 227.268C636.028 226.424 635.553 225.28 635.552 224.087V180.968C635.553 179.775 636.028 178.631 636.872 177.787C637.715 176.944 638.859 176.469 640.052 176.468H676.592C677.785 176.469 678.929 176.944 679.773 177.787C680.616 178.631 681.091 179.775 681.092 180.968V224.087C681.091 225.28 680.616 226.424 679.773 227.268C678.929 228.112 677.785 228.586 676.592 228.587Z" fill="#172B4D"/>
<path d="M552.592 212.587H516.052C514.859 212.586 513.715 212.112 512.872 211.268C512.028 210.424 511.553 209.28 511.552 208.087V164.968C511.553 163.775 512.028 162.631 512.872 161.787C513.715 160.944 514.859 160.469 516.052 160.468H552.592C553.785 160.469 554.929 160.944 555.773 161.787C556.616 162.631 557.091 163.775 557.092 164.968V208.087C557.091 209.28 556.616 210.424 555.773 211.268C554.929 212.112 553.785 212.586 552.592 212.587Z" fill="#0079BF"/>
<path d="M481.592 228.587H445.052C443.859 228.586 442.715 228.112 441.872 227.268C441.028 226.424 440.553 225.28 440.552 224.087V180.968C440.553 179.775 441.028 178.631 441.872 177.787C442.715 176.944 443.859 176.469 445.052 176.468H481.592C482.785 176.469 483.929 176.944 484.773 177.787C485.616 178.631 486.091 179.775 486.092 180.968V224.087C486.091 225.28 485.616 226.424 484.773 227.268C483.929 228.112 482.785 228.586 481.592 228.587V228.587Z" fill="#172B4D"/>
<path d="M328.592 296.587H292.052C290.859 296.586 289.715 296.112 288.872 295.268C288.028 294.424 287.553 293.28 287.552 292.087V248.968C287.553 247.775 288.028 246.631 288.872 245.787C289.715 244.944 290.859 244.469 292.052 244.468H328.592C329.785 244.469 330.929 244.944 331.773 245.787C332.616 246.631 333.091 247.775 333.092 248.968V292.087C333.091 293.28 332.616 294.424 331.773 295.268C330.929 296.112 329.785 296.586 328.592 296.587Z" fill="#172B4D"/>
<path d="M143.592 239.587H107.052C105.859 239.586 104.715 239.112 103.871 238.268C103.028 237.424 102.553 236.28 102.552 235.087V191.968C102.553 190.775 103.028 189.631 103.871 188.787C104.715 187.944 105.859 187.469 107.052 187.468H143.592C144.785 187.469 145.929 187.944 146.772 188.787C147.616 189.631 148.091 190.775 148.092 191.968V235.087C148.091 236.28 147.616 237.424 146.772 238.268C145.929 239.112 144.785 239.586 143.592 239.587V239.587Z" fill="#0079BF"/>
<path d="M246.592 160.587H210.052C208.859 160.586 207.715 160.112 206.871 159.268C206.028 158.424 205.553 157.28 205.552 156.087V112.968C205.553 111.775 206.028 110.631 206.871 109.787C207.715 108.944 208.859 108.469 210.052 108.468H246.592C247.785 108.469 248.929 108.944 249.772 109.787C250.616 110.631 251.091 111.775 251.092 112.968V156.087C251.091 157.28 250.616 158.424 249.772 159.268C248.929 160.112 247.785 160.586 246.592 160.587V160.587Z" fill="#172B4D"/>
<path d="M216.676 41H159.676C158.615 41 157.598 40.5786 156.848 39.8284C156.098 39.0783 155.676 38.0609 155.676 37C155.676 35.9391 156.098 34.9217 156.848 34.1716C157.598 33.4214 158.615 33 159.676 33H216.676C217.737 33 218.755 33.4214 219.505 34.1716C220.255 34.9217 220.676 35.9391 220.676 37C220.676 38.0609 220.255 39.0783 219.505 39.8284C218.755 40.5786 217.737 41 216.676 41Z" fill="#CCCCCC"/>
<path d="M377.676 41H320.676C319.615 41 318.598 40.5786 317.848 39.8284C317.098 39.0783 316.676 38.0609 316.676 37C316.676 35.9391 317.098 34.9217 317.848 34.1716C318.598 33.4214 319.615 33 320.676 33H377.676C378.737 33 379.755 33.4214 380.505 34.1716C381.255 34.9217 381.676 35.9391 381.676 37C381.676 38.0609 381.255 39.0783 380.505 39.8284C379.755 40.5786 378.737 41 377.676 41Z" fill="#CCCCCC"/>
<path d="M528.676 41H471.676C470.615 41 469.598 40.5786 468.848 39.8284C468.098 39.0783 467.676 38.0609 467.676 37C467.676 35.9391 468.098 34.9217 468.848 34.1716C469.598 33.4214 470.615 33 471.676 33H528.676C529.737 33 530.755 33.4214 531.505 34.1716C532.255 34.9217 532.676 35.9391 532.676 37C532.676 38.0609 532.255 39.0783 531.505 39.8284C530.755 40.5786 529.737 41 528.676 41Z" fill="#CCCCCC"/>
<path d="M669.676 41H612.676C611.615 41 610.598 40.5786 609.848 39.8284C609.098 39.0783 608.676 38.0609 608.676 37C608.676 35.9391 609.098 34.9217 609.848 34.1716C610.598 33.4214 611.615 33 612.676 33H669.676C670.737 33 671.755 33.4214 672.505 34.1716C673.255 34.9217 673.676 35.9391 673.676 37C673.676 38.0609 673.255 39.0783 672.505 39.8284C671.755 40.5786 670.737 41 669.676 41Z" fill="#CCCCCC"/>
<path d="M89.0092 333.891C87.5461 333.748 86.1322 333.286 84.8672 332.537C83.6021 331.788 82.5166 330.771 81.6871 329.557C80.8576 328.343 80.3044 326.963 80.0663 325.512C79.8282 324.061 79.9111 322.576 80.3092 321.161L54.6763 297.3L68.229 293.862L93.4348 314.305C95.7679 315.132 97.7168 316.785 98.9124 318.952C100.108 321.119 100.467 323.65 99.9214 326.064C99.3759 328.478 97.9638 330.609 95.9526 332.051C93.9414 333.494 91.4709 334.149 89.0092 333.891V333.891Z" fill="#FFB8B8"/>
<path d="M124.404 510.253H136.664L142.496 462.965H124.402L124.404 510.253Z" fill="#FFB8B8"/>
<path d="M160.308 521.636L121.777 521.637L121.777 506.75L145.421 506.749C149.369 506.749 153.155 508.317 155.947 511.109C158.739 513.901 160.308 517.687 160.308 521.636V521.636L160.308 521.636Z" fill="#2F2E41"/>
<path d="M40.345 501.401L52.193 504.555L69.994 460.359L52.509 455.705L40.345 501.401Z" fill="#FFB8B8"/>
<path d="M72.113 521.639L34.8788 511.729L38.708 497.343L61.5563 503.424C65.3716 504.44 68.6273 506.929 70.6071 510.345C72.5868 513.761 73.1285 517.824 72.113 521.639V521.639V521.639Z" fill="#2F2E41"/>
<path d="M139.961 501.3H121.254C120.072 501.304 118.932 500.866 118.057 500.071C117.182 499.277 116.637 498.183 116.528 497.007L105.171 379.075C105.088 378.21 104.707 377.401 104.093 376.786C103.479 376.171 102.67 375.789 101.805 375.704C100.94 375.62 100.073 375.838 99.3512 376.323C98.6298 376.808 98.0991 377.528 97.8501 378.36L64.8767 488.56C64.528 489.731 63.7405 490.722 62.6785 491.327C61.6165 491.932 60.3621 492.103 59.1767 491.806L41.7736 487.454C41.1662 487.302 40.5949 487.032 40.0924 486.658C39.5899 486.285 39.1663 485.816 38.8459 485.278C38.5255 484.74 38.3146 484.144 38.2255 483.524C38.1363 482.905 38.1706 482.273 38.3264 481.667C38.6106 480.557 66.737 370.639 66.9826 369.509C73.3554 322.541 80.9797 309.955 85.0756 303.194C85.4148 302.635 85.7263 302.12 86.0068 301.634C86.3579 301.025 88.5192 294.989 89.8903 291.069C90.0684 290.432 90.3767 289.838 90.7959 289.325C91.215 288.813 91.7358 288.393 92.3254 288.092C109.536 279.29 129.673 285.383 135.435 287.46C136.39 287.796 137.21 288.433 137.773 289.275C155.057 315.347 146.575 466.767 144.699 496.856C144.621 498.06 144.088 499.189 143.208 500.014C142.328 500.839 141.167 501.299 139.961 501.3V501.3Z" fill="#2F2E41"/>
<path d="M91.6841 202.585C105.249 202.585 116.245 191.589 116.245 178.024C116.245 164.46 105.249 153.463 91.6841 153.463C78.1195 153.463 67.1231 164.46 67.1231 178.024C67.1231 191.589 78.1195 202.585 91.6841 202.585Z" fill="#FFB8B8"/>
<path d="M89.0818 295.838L88.9053 295.667C88.5742 295.347 55.8496 263.287 60.0847 233.643C61.896 220.963 72.155 212.861 89.7524 210.212C96.2173 209.252 102.812 210.657 108.323 214.17C113.835 217.683 117.893 223.067 119.752 229.333L137.152 288.817L89.0818 295.838Z" fill="#CCCCCC"/>
<path d="M72.3328 318.641L49.0144 295.47C47.42 293.876 46.2624 291.899 45.653 289.729C45.0436 287.559 45.0028 285.269 45.5347 283.078L56.8232 237.159C57.1614 235.783 57.7783 234.491 58.6359 233.363C59.4935 232.235 60.5734 231.296 61.8089 230.602C63.0444 229.908 64.4091 229.475 65.8186 229.33C67.228 229.185 68.6523 229.331 70.0031 229.759C72.5779 230.589 74.7285 232.388 75.9995 234.776C77.2705 237.164 77.5619 239.953 76.8122 242.553L64.9277 282.949L84.146 303.586L72.3328 318.641Z" fill="#CCCCCC"/>
<path d="M197.404 239.562C196.788 240.897 195.886 242.08 194.763 243.028C193.64 243.977 192.322 244.667 190.903 245.052C189.484 245.436 187.998 245.504 186.55 245.252C185.101 244.999 183.726 244.432 182.521 243.591L151.391 259.726L152.767 246.02L180.364 228.941C181.912 227.009 184.114 225.713 186.554 225.297C188.994 224.88 191.501 225.374 193.602 226.683C195.702 227.992 197.25 230.026 197.95 232.4C198.651 234.774 198.457 237.322 197.404 239.562H197.404Z" fill="#FFB8B8"/>
<path d="M179.121 249.765L148.775 262.878C146.755 263.744 144.546 264.076 142.361 263.841C140.176 263.607 138.088 262.814 136.298 261.54L97.7089 233.891C96.5572 233.065 95.5871 232.013 94.8587 230.797C94.1302 229.582 93.659 228.23 93.474 226.826C93.289 225.421 93.3942 223.993 93.7832 222.631C94.1722 221.268 94.8366 220 95.7354 218.905C97.4625 216.822 99.9325 215.494 102.622 215.202C105.312 214.909 108.009 215.675 110.144 217.337L143.232 243.379L169.533 233.204L179.121 249.765Z" fill="#CCCCCC"/>
<path d="M95.7559 185.895C98.7859 182.098 104.447 181.894 108.609 179.39C114.061 176.109 116.315 168.779 114.558 162.664C112.801 156.549 107.62 151.783 101.679 149.503C95.7389 147.224 89.1298 147.196 82.8634 148.298C73.5331 149.938 64.3472 154.293 58.6568 161.867C52.9664 169.441 51.5183 180.533 56.6753 188.479C59.0456 192.132 62.7046 195.146 63.6508 199.396C64.8931 204.976 60.9794 210.357 56.7866 214.242C52.0099 218.669 46.5296 222.376 42.3447 227.365C38.1598 232.355 35.3691 239.171 37.2787 245.397C38.8787 250.614 43.5346 254.457 48.6401 256.381C53.7456 258.306 59.3062 258.584 64.7614 258.691C70.0585 258.794 75.685 258.666 80.1474 255.809C84.9245 252.752 87.4752 246.951 87.6636 241.282C87.8521 235.614 85.9578 230.06 83.419 224.988C81.9058 221.965 80.1463 219.035 79.1408 215.808C78.1353 212.58 77.9611 208.917 79.5714 205.945C81.264 202.82 84.6885 200.936 88.1755 200.251C88.3567 200.215 88.5483 200.183 88.7488 200.155C89.741 200.026 90.6967 199.698 91.5582 199.189C92.4197 198.681 93.1691 198.002 93.7612 197.196C94.3532 196.39 94.7755 195.471 95.0025 194.497C95.2296 193.523 95.2566 192.512 95.0821 191.527C94.6848 189.313 94.7192 187.193 95.7559 185.895Z" fill="#2F2E41"/>
<path d="M586.441 511.3H572.499L565.867 464.012L586.443 464.013L586.441 511.3Z" fill="#A0616A"/>
<path d="M562.541 507.797H589.428V532.684H545.612C545.612 529.416 546.05 526.179 546.9 523.16C547.751 520.141 548.998 517.397 550.57 515.086C552.142 512.775 554.008 510.942 556.062 509.691C558.116 508.441 560.318 507.797 562.541 507.797Z" fill="#2F2E41"/>
<path d="M687.598 497.413L674.918 502.506L646.541 461.917L665.257 454.399L687.598 497.413Z" fill="#A0616A"/>
<path d="M664.204 502.958L688.661 493.135L695.694 506.676L655.839 522.685C654.915 520.906 654.399 518.985 654.319 517.032C654.24 515.078 654.599 513.13 655.376 511.298C656.152 509.466 657.332 507.787 658.847 506.356C660.361 504.925 662.182 503.771 664.204 502.958V502.958Z" fill="#2F2E41"/>
<path d="M646.998 351.857C648.334 350.973 649.433 349.842 650.218 348.544C651.003 347.246 651.455 345.813 651.542 344.345C651.629 342.877 651.348 341.41 650.721 340.047C650.093 338.685 649.134 337.46 647.909 336.458L664.298 303.759L643.478 306.861L631.107 337.438C629.331 339.358 628.417 341.784 628.539 344.257C628.661 346.73 629.811 349.077 631.77 350.855C633.728 352.632 636.361 353.716 639.167 353.9C641.974 354.085 644.76 353.358 646.998 351.857Z" fill="#A0616A"/>
<path d="M585.552 498.831H572.234C570.942 498.827 569.699 498.396 568.753 497.622C567.807 496.849 567.228 495.79 567.13 494.658L559.866 324.099C559.812 323.445 559.921 322.789 560.186 322.177C560.45 321.564 560.863 321.009 561.397 320.552C561.93 320.094 562.571 319.745 563.274 319.527C563.977 319.31 564.726 319.231 565.467 319.294L642.494 326.488C643.742 326.595 644.902 327.102 645.754 327.912C646.606 328.722 647.089 329.778 647.113 330.881L648.728 406.117C648.736 406.525 648.826 406.929 648.994 407.31L680.59 479.363C680.834 479.919 680.95 480.513 680.931 481.109C680.912 481.706 680.758 482.293 680.478 482.836C680.198 483.38 679.798 483.869 679.302 484.275C678.805 484.682 678.221 484.997 677.585 485.203L664.088 489.576C662.916 489.956 661.626 489.946 660.462 489.547C659.298 489.148 658.34 488.389 657.768 487.412L618.954 421.043C618.742 420.682 618.587 420.298 618.494 419.901L611.863 391.807C611.671 390.992 611.155 390.265 610.408 389.754C609.661 389.244 608.731 388.984 607.786 389.022C606.841 389.06 605.942 389.392 605.251 389.96C604.559 390.527 604.12 391.293 604.012 392.119L590.636 494.843C590.494 495.941 589.897 496.954 588.959 497.69C588.021 498.425 586.809 498.832 585.552 498.831V498.831Z" fill="#2F2E41"/>
<path d="M592.184 200.739C607.609 200.739 620.114 187.504 620.114 171.178C620.114 154.852 607.609 141.617 592.184 141.617C576.759 141.617 564.254 154.852 564.254 171.178C564.254 187.504 576.759 200.739 592.184 200.739Z" fill="#A0616A"/>
<path d="M611.338 349.694C592.397 349.498 573.908 344.216 558.035 334.469L557.764 334.292L557.792 333.982L568.475 216.653C568.844 212.673 570.728 208.953 573.78 206.181C576.832 203.409 580.845 201.773 585.077 201.575C598.923 200.975 617.522 201.732 627.478 208.724C642.523 219.291 649.775 235.203 647.373 252.38C642.392 288.001 648.035 336.052 648.695 341.414L648.742 341.8L648.367 341.962C636.768 347.051 624.131 349.69 611.338 349.694V349.694Z" fill="#70C6F1"/>
<path d="M648.566 342.158C647.778 342.156 647 341.998 646.28 341.692C645.559 341.387 644.912 340.94 644.38 340.382L638.271 333.965C637.61 333.267 637.148 332.418 636.927 331.499C636.706 330.58 636.734 329.621 637.009 328.715L650.941 283.321L629.744 240.466C628.754 238.46 628.511 236.187 629.057 234.029C629.538 232.135 630.604 230.426 632.115 229.127C633.625 227.828 635.51 227 637.519 226.753C639.528 226.506 641.567 226.851 643.369 227.743C645.17 228.635 646.648 230.031 647.608 231.748L676.373 276.681C677.541 278.504 678.227 280.575 678.37 282.712C678.512 284.85 678.108 286.989 677.192 288.941L653.754 338.935C653.368 339.761 652.775 340.482 652.027 341.032C651.279 341.583 650.401 341.946 649.471 342.088C649.172 342.134 648.869 342.157 648.566 342.158V342.158Z" fill="#70C6F1"/>
<path d="M446.453 230.12C447.226 231.828 448.334 233.236 449.699 234.243C451.063 235.251 452.652 235.833 454.352 235.95C456.052 236.067 457.822 235.715 459.539 234.919C461.255 234.123 462.875 232.903 464.285 231.344L499.328 252.396L499.767 225.804L466.423 209.89C464.524 207.615 461.865 206.439 458.949 206.585C456.033 206.731 453.063 208.189 450.602 210.683C448.14 213.176 446.358 216.532 445.594 220.115C444.829 223.697 445.135 227.257 446.453 230.12L446.453 230.12Z" fill="#A0616A"/>
<path d="M525.666 267.49C525.007 267.25 524.365 266.964 523.746 266.634L467.246 236.501C466.322 236.01 465.536 235.291 464.959 234.409C464.382 233.527 464.032 232.51 463.941 231.449C463.911 231.107 463.908 230.763 463.931 230.42C463.994 229.529 464.238 228.659 464.647 227.864C465.056 227.07 465.621 226.368 466.307 225.802L473.279 215.241C474.134 214.541 475.149 214.074 476.226 213.884C477.303 213.694 478.406 213.788 479.429 214.157L479.437 214.16L532.344 237.123L584.057 215.72C586.461 214.728 589.116 214.603 591.577 215.365C593.736 216.037 595.634 217.362 597.023 219.165C598.411 220.968 599.223 223.164 599.352 225.464C599.481 227.763 598.921 230.059 597.745 232.047C596.57 234.036 594.835 235.624 592.768 236.602L538.053 266.514C536.159 267.551 534.078 268.173 531.943 268.342C529.809 268.51 527.671 268.22 525.666 267.49Z" fill="#70C6F1"/>
<path d="M595.359 197.886C597.912 191.781 600.071 183.649 595.176 179.333C592.336 176.829 588.246 176.824 584.526 176.512C574.044 175.635 563.254 170.65 558.131 161.158C553.008 151.666 555.869 137.551 565.534 133.269C572.049 130.382 579.519 132.349 586.338 134.347L606.814 140.349C612.898 142.132 619.286 144.098 623.666 148.813C630.651 156.332 630.129 169.043 624.581 177.748C619.033 186.453 610.677 195.532 601.112 198.837L595.359 197.886Z" fill="#2F2E41"/>
<path d="M739.485 523.01H1.19069C1.03404 523.01 0.878838 522.98 0.733978 522.92C0.589119 522.86 0.457459 522.773 0.346527 522.662C0.235596 522.551 0.147578 522.42 0.0875244 522.275C0.0274707 522.131 -0.00344849 521.976 -0.00344849 521.819C-0.00344849 521.662 0.0274707 521.507 0.0875244 521.362C0.147578 521.218 0.235596 521.086 0.346527 520.976C0.457459 520.865 0.589119 520.777 0.733978 520.718C0.878838 520.658 1.03404 520.628 1.19069 520.628H739.485C739.641 520.628 739.797 520.658 739.941 520.718C740.086 520.777 740.218 520.865 740.329 520.976C740.44 521.086 740.528 521.218 740.588 521.362C740.648 521.507 740.679 521.662 740.679 521.819C740.679 521.976 740.648 522.131 740.588 522.275C740.528 522.42 740.44 522.551 740.329 522.662C740.218 522.773 740.086 522.86 739.941 522.92C739.797 522.98 739.641 523.01 739.485 523.01V523.01Z" fill="#3F3D56"/>
</g>
<defs>
<clipPath id="clip0">
<rect width="762" height="523" fill="white"/>
</clipPath>
</defs>
</svg>
