<svg width="737" height="184" viewBox="0 0 737 184" fill="none" xmlns="http://www.w3.org/2000/svg">
<path fill-rule="evenodd" clip-rule="evenodd" d="M28.2 12H156.8C167.7 12 176.4 20.7 176.5 31.6V157.3C176.5 168.1 167.7 176.9 156.9 176.9H28.2C17.4 176.9 8.60001 168.1 8.60001 157.3V31.6C8.60001 20.8 17.4 12 28.2 12ZM106.1 137.2C109.7 137.2 112.6 134.3 112.6 130.7V48.9C112.6 45.3 109.7 42.4 106.1 42.4H78.5C74.9 42.4 72 45.3 72 48.9V130.7C72 134.3 74.9 137.2 78.5 137.2H106.1ZM55.5 99.7C59.1 99.7 62 96.8 62 93.2V48.9C62 45.3 59.1 42.4 55.5 42.4H27.9C24.3 42.4 21.4 45.3 21.4 48.9V93.2C21.4 96.8 24.3 99.7 27.9 99.7H55.5ZM157.1 120.2C160.7 120.2 163.6 117.3 163.6 113.7V51.9C163.6 48.3 160.7 45.4 157.1 45.4H129.5C125.9 45.4 123 48.3 123 51.9V113.7C123 117.3 125.9 120.2 129.5 120.2H157.1Z" fill="#0079BF"/>
<path d="M363.793 17.3H328.707V101.107H327.5L270.256 17.3H240V162.755H275.156V78.8057H276.08L333.963 162.755H363.793V17.3Z" fill="#253858"/>
<path d="M436.893 164.814C465.515 164.814 484.336 150.965 488.313 129.516L456.424 128.593C453.725 135.837 446.623 139.743 437.532 139.743C424.18 139.743 415.941 130.865 415.941 117.513V116.59H488.668V107.925C488.668 71.9875 466.793 52.2432 435.827 52.2432C402.873 52.2432 381.708 74.8284 381.708 108.635C381.708 143.578 402.589 164.814 436.893 164.814ZM415.941 96.4193C416.438 85.5528 425.032 77.3142 436.538 77.3142C447.972 77.3142 456.211 85.2687 456.353 96.4193H415.941Z" fill="#253858"/>
<path d="M541.136 17.3H506.406V162.755H541.136V17.3Z" fill="#253858"/>
<path d="M597.972 17.3H563.242V162.755H597.972V17.3Z" fill="#253858"/>
<path d="M671.001 164.814C705.305 164.814 726.115 142.158 726.115 108.564C726.115 74.8994 705.305 52.2432 671.001 52.2432C636.697 52.2432 615.888 74.8994 615.888 108.564C615.888 142.158 636.697 164.814 671.001 164.814ZM671.214 138.607C658.359 138.607 651.257 126.391 651.257 108.351C651.257 90.2403 658.359 77.9534 671.214 77.9534C683.643 77.9534 690.746 90.2403 690.746 108.351C690.746 126.391 683.643 138.607 671.214 138.607Z" fill="#253858"/>
</svg>
