<?xml version="1.0" standalone="no"?>
<!DOCTYPE svg PUBLIC "-//W3C//DTD SVG 20010904//EN"
 "http://www.w3.org/TR/2001/REC-SVG-20010904/DTD/svg10.dtd">
<svg version="1.0" xmlns="http://www.w3.org/2000/svg"
 width="672.000000pt" height="672.000000pt" viewBox="0 0 672.000000 672.000000"
 preserveAspectRatio="xMidYMid meet">
<metadata>
Created by potrace 1.14, written by Peter Selinger 2001-2017
</metadata>
<g transform="translate(0.000000,672.000000) scale(0.100000,-0.100000)"
fill="#000000" stroke="none">
<path d="M630 6645 c-309 -66 -550 -309 -614 -618 -14 -68 -16 -345 -16 -2661
0 -2184 2 -2596 14 -2658 60 -310 274 -537 586 -620 l85 -23 2675 0 2675 0 83
22 c329 88 554 347 592 685 8 64 10 881 8 2653 l-3 2560 -23 80 c-89 316 -321
529 -636 584 -41 8 -898 11 -2710 10 -2219 0 -2662 -3 -2716 -14z m1332 -1217
c53 -16 121 -78 150 -136 l23 -47 3 -914 c2 -637 -1 -931 -8 -968 -16 -75 -63
-140 -130 -177 l-55 -31 -599 -3 c-690 -3 -674 -5 -758 79 -83 83 -79 26 -76
1090 l3 934 22 41 c28 53 79 102 128 125 38 17 77 19 649 19 438 0 620 -3 648
-12z m2057 -15 c55 -27 105 -84 128 -146 9 -24 12 -453 12 -1713 1 -1899 8
-1738 -80 -1826 -81 -81 -66 -79 -755 -76 -593 3 -599 3 -639 25 -22 12 -57
39 -77 60 -74 76 -68 -76 -68 1810 0 1687 1 1698 21 1743 27 60 64 98 124 126
l50 24 616 0 615 0 53 -27z m2040 -119 c60 -30 113 -95 131 -159 8 -28 10
-416 8 -1330 l-3 -1290 -27 -47 c-16 -25 -45 -61 -65 -78 -74 -61 -79 -61
-739 -58 -593 3 -599 3 -639 25 -22 12 -57 39 -77 60 -73 75 -68 -32 -68 1410
0 1284 1 1298 21 1343 27 60 64 98 124 126 l50 24 616 0 615 0 53 -26z"/>
</g>
</svg>
